<?xml version="1.0" encoding="utf-8"?>
<!-- Generator: Adobe Illustrator 24.1.0, SVG Export Plug-In . SVG Version: 6.00 Build 0)  -->
<svg version="1.0" xmlns="http://www.w3.org/2000/svg" xmlns:xlink="http://www.w3.org/1999/xlink" x="0px" y="0px"
	 viewBox="0 0 2594 1560" enable-background="new 0 0 2594 1560" xml:space="preserve">
<g id="fondo">
	<rect opacity="0.61" fill="#FFFFFF" width="2594" height="1560"/>
</g>
<g id="_x33__CHELAS">
	<g id="ideal_chela">
		<g>
			<path fill="#F0F3F5" d="M1502,247.8c-4.4-15-24.8-26.7-50.4-28.5c-3.7-0.3-6.9-1.7-8.4-3.8c-6.2-8.5-20.3-14.4-36.8-14.4
				c0,0,0,0-0.1,0c-3.4,0-6.5-0.9-8.6-2.5c-10.7-8-27.1-13.1-45.6-13.1c-1.7,0-3.3,0-5,0.1c-4,0.2-8-0.9-9.9-3.1
				c-6.8-7.5-20.1-12.6-35.4-12.6c-15.3,0-28.6,5.1-35.4,12.6c-1.9,2.1-5.9,3.3-9.9,3.1c-1.6-0.1-3.3-0.1-5-0.1
				c-18.5,0-34.9,5.1-45.6,13.1c-2.1,1.6-5.2,2.5-8.6,2.5c0,0,0,0-0.1,0c-16.5,0-30.6,5.9-36.8,14.4c-1.5,2.1-4.6,3.5-8.4,3.8
				c-25.6,1.8-46,13.5-50.4,28.5L1502,247.8L1502,247.8z"/>
			<path fill="#C9E2E7" d="M1365.3,247.8H1502c-4.4-15-24.8-26.7-50.4-28.5c-3.7-0.3-6.9-1.7-8.4-3.8c-6.2-8.5-20.3-14.4-36.8-14.4
				c0,0,0,0-0.1,0c-3.4,0-6.5-0.9-8.6-2.5c-10.7-8-27.1-13.1-45.6-13.1c-1.7,0-3.3,0-5,0.1c-4,0.2-8-0.9-9.9-3.1
				c-6.8-7.5-20.1-12.6-35.4-12.6c-14.3,0-26.8,4.5-33.9,11.2C1317.2,191.5,1354.7,216.7,1365.3,247.8z"/>
		</g>
		<path fill="#FEF3C4" d="M1101,247.8h401.9v96.5H1101V247.8z"/>
		<path fill="#FBE77C" d="M1440.6,247.8h62.3v96.5h-62.3V247.8z"/>
		<path fill="#FDCF0C" d="M1101,344.3V673c0,20.5,3.9,40.7,11.5,59.7l17.2,43c7.6,19,11.5,39.3,11.5,59.7v230.3
			c0,22.2,18,40.2,40.2,40.2h241.1c22.2,0,40.2-18,40.2-40.2V835.4c0-20.5,3.9-40.7,11.5-59.7l17.2-43c7.6-19,11.5-39.3,11.5-59.7
			V344.3L1101,344.3z"/>
		<path fill="#FCDD2E" d="M1440.6,344.3V673c0,20.5-3.9,40.7-11.5,59.7l-17.2,43c-7.6,19-11.5,39.3-11.5,59.7v230.3
			c0,22.2-18,40.2-40.2,40.2h62.3c22.2,0,40.2-18,40.2-40.2V835.4c0-20.5,3.9-40.7,11.5-59.7l17.2-43c7.6-19,11.5-39.3,11.5-59.7
			V344.3H1440.6z"/>
		<path fill="#F0F3F5" d="M1462.7,1065.6v-40.2h-321.5v40.2c0,22.2,18,40.2,40.2,40.2h241.1
			C1444.7,1105.8,1462.7,1087.8,1462.7,1065.6z"/>
		<path fill="#F6A123" d="M1440.6,344.3V673c0,20.5-3.9,40.7-11.5,59.7l-17.2,43c-7.6,19-11.5,39.3-11.5,59.7v230.3
			c0,22.2-18,40.2-40.2,40.2h62.3c22.2,0,40.2-18,40.2-40.2V835.4c0-20.5,3.9-40.7,11.5-59.7l17.2-43c7.6-19,11.5-39.3,11.5-59.7
			V344.3H1440.6z"/>
		<path fill="#F0F3F5" d="M1462.7,1065.6v-40.2h-321.5v40.2c0,22.2,18,40.2,40.2,40.2h241.1
			C1444.7,1105.8,1462.7,1087.8,1462.7,1065.6z"/>
		<path fill="#C9E2E7" d="M1400.4,1065.6c0,22.2-18,40.2-40.2,40.2h62.3c22.2,0,40.2-18,40.2-40.2v-40.2h-62.3V1065.6z"/>
		<g>
			<circle fill="#F6A123" cx="1213.5" cy="464.8" r="29.6"/>
			<circle fill="#F6A123" cx="1390.4" cy="464.8" r="29.6"/>
			
				<ellipse transform="matrix(0.1602 -0.9871 0.9871 0.1602 549.2954 1748.0869)" fill="#F6A123" cx="1302" cy="551.2" rx="30.1" ry="30.1"/>
			<circle fill="#F6A123" cx="1243.7" cy="641.7" r="30.1"/>
			
				<ellipse transform="matrix(0.9239 -0.3827 0.3827 0.9239 -184.126 554.578)" fill="#F6A123" cx="1302" cy="740.1" rx="30.1" ry="30.1"/>
		</g>
	</g>
	<g id="extra">
		<path fill="#FAF0DB" d="M670.9,201.1c-13.9-48-58.2-83.2-110.7-83.2c-34.6,0-65.6,15.3-86.7,39.4c-8.6-4.2-18.3-6.5-28.5-6.5
			c-31.4,0-57.7,22-64.2,51.4c-5.8-1.3-11.9-2-18.1-2c-45.5,0-82.3,36.9-82.3,82.3s36.9,82.3,82.3,82.3H659
			c45.5,0,82.3-36.9,82.3-82.3C741.4,241.2,710.8,206.9,670.9,201.1z"/>
		<path fill="#C8C7C6" d="M288.2,381.4l55.5,694.1c1.4,17.1,15.7,30.3,32.8,30.3h268.5c17.2,0,31.5-13.2,32.8-30.3l55.5-694.1H288.2
			z"/>
		<path fill="#FDCF0C" d="M680.8,1040l52.7-658.6H288.2l52.7,658.6H680.8z"/>
		<path fill="#F6A123" d="M510.9,1040h169.9l52.7-658.6H510.9V1040z"/>
		<path fill="#F0D9BB" d="M733.5,381.4l5.1-63.2c1.5-19.2-13.6-35.6-32.8-35.6H316c-19.2,0-34.4,16.4-32.8,35.6l5.1,63.2H733.5z"/>
		<path fill="#EEC08E" d="M705.7,282.6H510.9v98.8h222.6l5.1-63.2C740,299,724.9,282.6,705.7,282.6z"/>
		<path fill="#A1A5A9" d="M445,1105.8h200.1c17.2,0,31.5-13.2,32.8-30.3l2.8-35.6H510.9C510.9,1076.3,481.4,1105.8,445,1105.8z"/>
		<circle fill="#F6A123" cx="379.1" cy="919.2" r="32.9"/>
		<circle fill="#F6A123" cx="403.8" cy="581.7" r="24.7"/>
		<circle fill="#F6A123" cx="456" cy="798.5" r="16.5"/>
		<circle fill="#FDCF0C" cx="642.6" cy="546" r="32.9"/>
		<circle fill="#FDCF0C" cx="617.9" cy="927.5" r="24.7"/>
		<circle fill="#FDCF0C" cx="565.7" cy="666.8" r="16.5"/>
		<path fill="#FAF0DB" d="M510.9,282.6v197.6c0,18.2,14.7,32.9,32.9,32.9s32.9-14.7,32.9-32.9v-65.9c0-18.2,14.7-32.9,32.9-32.9
			s32.9,14.7,32.9,32.9s14.7,32.9,32.9,32.9s32.9-14.7,32.9-32.9V282.6c0-18.2-14.7-32.9-32.9-32.9H543.8
			C525.6,249.7,510.9,264.4,510.9,282.6z"/>
		<path fill="#FFFFFF" d="M355.6,315.5c-18.4,0-32.9,15.7-31.5,34.1l56.6,707.2c0.7,9.1,8.3,16,17.4,16c9.9,0,17.8-8.2,17.4-18.1
			l-28.4-708.9C386.5,328.9,372.6,315.5,355.6,315.5z"/>
	</g>
	<g id="sub">
		<path fill="#EFE2DD" d="M2278.7,240.5h-369.7c-9.8,0-17.8,11.9-17.8,26.6v277.1c0,44.3,6.7,88.1,19.7,128
			c13,39.9,19.7,83.6,19.7,128v279.2c0,14.7,8,26.6,17.8,26.6h290.9c9.8,0,17.8-11.9,17.8-26.6V800.1c0-44.3,6.7-88.1,19.7-128
			c13-39.9,19.7-83.6,19.7-128V267.1C2296.4,252.4,2288.5,240.5,2278.7,240.5z"/>
		<path fill="#E2D4CF" d="M2278.7,240.5h-102.4v253.8c0,44.3-6.7,88.1-19.7,128c-13,39.9-19.7,83.6-19.7,128v209
			c0,53.4-29,96.8-64.7,96.8h-141.6v23.3c0,14.7,8,26.6,17.8,26.6h290.9c9.8,0,17.8-11.9,17.8-26.6V800.1
			c0-43.9,6.4-87.4,19.4-126.9c13.2-40.2,20.1-84.3,20.1-129.1V267.1C2296.4,252.4,2288.5,240.5,2278.7,240.5z"/>
		<path fill="#FDCF0C" d="M1892.2,297.6c-1.3,39.3-3.1,97.9-4.7,173.8c-1.4,61.7-1.9,99.8,9.7,149.7c4.6,19.6,7.5,26.1,13.7,51
			c13.3,53.9,17.9,98.6,19.7,128v279.2c0,14.7,8,26.6,17.8,26.6h290.9c9.8,0,17.8-11.9,17.8-26.6V800.1c3-29.4,8.6-74,19.7-128
			c8.8-42.7,12.2-48.3,16.7-76.9c8-50.4,5-81.3,3-149.6c-1-34.8-1.9-85.5-1.1-148.1C2161,297.6,2026.6,297.6,1892.2,297.6z"/>
		<path fill="#F6A123" d="M2175.1,297.6c4.5,112.2-1.4,190.5-7.2,239.1c-2.2,18.5-6.8,53.3-11.4,85.6c-7.6,53.7-14.7,97.8-19.7,128
			v209c0,53.4-29,96.8-64.7,96.8h-141.6v23.3c0,14.7,8,26.6,17.8,26.6h290.9c9.8,0,17.8-11.9,17.8-26.6V799.4
			c4.8-54.8,13.2-98.3,20.1-128.6c6.4-27.7,11.6-44.4,16.3-75.5c5.8-38.6,5.9-68.3,5.9-92.6c-0.1-83.2-2.4-160-4-205.1
			C2255.3,297.6,2215.2,297.6,2175.1,297.6z"/>
		<path fill="#FEF5F5" d="M2295.3,297.6c0.7-1.7,1.1-3.4,1.1-5v-13c-33.8-0.7-36.6-5.6-75.4-5.6c-41.8,0-41.8,5.7-83.6,5.7
			c-41.8,0-41.8-5.7-83.6-5.7c-41.8,0-41.8,5.7-83.6,5.7c-40.2,0-41.8-5.3-78.9-5.7v18.6c0,1.7,0.4,3.4,1.1,5H2295.3z"/>
		<path fill="#EFE2DD" d="M2218.3,274c-15.8,0-24.5,0.7-27.6,1c-5.9,0.7-10.9,1.5-14.4,2.2c-0.4,6.8-0.8,13.6-1.2,20.4
			c40.1,0,80.1,0,120.2,0c0.7-1.7,1.1-3.4,1.1-5v-13C2261.4,278.9,2258.6,274,2218.3,274z"/>
		<path fill="#FFFFFF" d="M1943.6,346.6c-4,0.9-1,18.2,0,63.2c0.9,41.3-1.2,43.2,0,85.6c0.7,26.2,1.2,42,4,64.6
			c2.5,20.6,7,38.4,15.8,73.8c7.7,31,12,36.8,15.8,36.9c8.1,0.2,14.6-26.3,14.9-27.8c3.1-13.2,2.7-25.1,0.6-39.3
			c-3.1-22-8-34.6-11.6-47.7c-4.2-15.2-5.6-36.5-8.4-79.2c-3.2-48.7-1.2-54.3-6.1-74.7C1961.9,373.6,1948.8,345.3,1943.6,346.6z"/>
	</g>
</g>
<g id="TEXTO">
	<polygon fill="none" points="629.4,193.5 632.3,193.5 632.3,193.5 629.4,193.5 	"/>
	<g>
		<text transform="matrix(1 0 0 1 340.3939 1281.4143)"><tspan x="0" y="0" fill="#E2620F" font-family="'FlowersKingdom'" font-size="53.7654px">EXCESO DE </tspan><tspan x="-85.1" y="129" fill="#E2620F" font-family="'FlowersKingdom'" font-size="53.7654px">CARBONATACIÓN</tspan></text>
	</g>
	<text transform="matrix(1 0 0 1 1997.4159 1281.4143)"><tspan x="0" y="0" fill="#E2620F" font-family="'FlowersKingdom'" font-size="53.7654px">BAJA </tspan><tspan x="-160.3" y="129" fill="#E2620F" font-family="'FlowersKingdom'" font-size="53.7654px">CARBONATACIÓN</tspan></text>
	<text transform="matrix(1 0 0 1 1037.1776 1281.4143)"><tspan x="0" y="0" fill="#E2620F" font-family="'FlowersKingdom'" font-size="53.7654px">sCARBONATACIÓN</tspan><tspan x="161.8" y="129" fill="#E2620F" font-family="'FlowersKingdom'" font-size="53.7654px"> IDEAL</tspan></text>
</g>
<g id="exceso">
	<g>
		<path fill="#E37B09" d="M670.9,201.1c-13.9-48-58.2-83.2-110.7-83.2c-34.6,0-65.6,15.3-86.7,39.4c-8.6-4.2-18.3-6.5-28.5-6.5
			c-31.4,0-57.7,22-64.2,51.4c-5.8-1.3-11.9-2-18.1-2c-45.5,0-82.3,36.9-82.3,82.3s36.9,82.3,82.3,82.3H659
			c45.5,0,82.3-36.9,82.3-82.3C741.4,241.2,710.8,206.9,670.9,201.1z"/>
		<path fill="#E37B09" d="M510.9,282.6v197.6c0,18.2,14.7,32.9,32.9,32.9s32.9-14.7,32.9-32.9v-65.9c0-18.2,14.7-32.9,32.9-32.9
			s32.9,14.7,32.9,32.9s14.7,32.9,32.9,32.9s32.9-14.7,32.9-32.9V282.6c0-18.2-14.7-32.9-32.9-32.9H543.8
			C525.6,249.7,510.9,264.4,510.9,282.6z"/>
	</g>
</g>
<g id="ideal">
	<g>
		<path fill="#E37B09" d="M1502,247.8c-4.4-15-24.8-26.7-50.4-28.5c-3.7-0.3-6.9-1.7-8.4-3.8c-6.2-8.5-20.3-14.4-36.8-14.4
			c0,0,0,0-0.1,0c-3.4,0-6.5-0.9-8.6-2.5c-10.7-8-27.1-13.1-45.6-13.1c-1.7,0-3.3,0-5,0.1c-4,0.2-8-0.9-9.9-3.1
			c-6.8-7.5-20.1-12.6-35.4-12.6c-15.3,0-28.6,5.1-35.4,12.6c-1.9,2.1-5.9,3.3-9.9,3.1c-1.6-0.1-3.3-0.1-5-0.1
			c-18.5,0-34.9,5.1-45.6,13.1c-2.1,1.6-5.2,2.5-8.6,2.5c0,0,0,0-0.1,0c-16.5,0-30.6,5.9-36.8,14.4c-1.5,2.1-4.6,3.5-8.4,3.8
			c-25.6,1.8-46,13.5-50.4,28.5L1502,247.8L1502,247.8z"/>
		<path fill="#E37B09" d="M1365.3,247.8H1502c-4.4-15-24.8-26.7-50.4-28.5c-3.7-0.3-6.9-1.7-8.4-3.8c-6.2-8.5-20.3-14.4-36.8-14.4
			c0,0,0,0-0.1,0c-3.4,0-6.5-0.9-8.6-2.5c-10.7-8-27.1-13.1-45.6-13.1c-1.7,0-3.3,0-5,0.1c-4,0.2-8-0.9-9.9-3.1
			c-6.8-7.5-20.1-12.6-35.4-12.6c-14.3,0-26.8,4.5-33.9,11.2C1317.2,191.5,1354.7,216.7,1365.3,247.8z"/>
	</g>
</g>
<g id="baja">
	<path fill="#E37B09" d="M2295.3,297.6c0.7-1.7,1.1-3.4,1.1-5v-13c-33.8-0.7-36.6-5.6-75.4-5.6c-41.8,0-41.8,5.7-83.6,5.7
		c-41.8,0-41.8-5.7-83.6-5.7c-41.8,0-41.8,5.7-83.6,5.7c-40.2,0-41.8-5.3-78.9-5.7v18.6c0,1.7,0.4,3.4,1.1,5H2295.3z"/>
</g>
</svg>
